<!--?xml version="1.0" standalone="no"?-->
              <svg id="sw-js-blob-svg" viewBox="0 0 100 100" xmlns="http://www.w3.org/2000/svg" height="600px" version="1.1">
                    <defs> 
                        <linearGradient id="sw-gradient" x1="0" x2="1" y1="1" y2="0">
                            <stop id="stop1" stop-color="rgba(46, 113, 244, 1)" offset="0%"></stop>
                            <stop id="stop2" stop-color="rgba(31, 113.484, 251, 1)" offset="100%"></stop>
                        </linearGradient>
                    </defs>
                <path fill="url(#sw-gradient)" d="M23.7,-31.3C30.8,-27.5,36.6,-20.7,40.2,-12.4C43.7,-4.2,45,5.4,41,12C37.1,18.6,27.9,22.2,20.2,27.7C12.5,33.2,6.2,40.7,-0.1,40.8C-6.5,41,-13,33.9,-18.2,27.6C-23.4,21.3,-27.3,15.7,-30.4,9.2C-33.5,2.7,-35.8,-4.9,-33.5,-10.6C-31.3,-16.4,-24.5,-20.4,-18.2,-24.4C-11.9,-28.4,-5.9,-32.3,1.2,-33.9C8.3,-35.6,16.7,-35,23.7,-31.3Z" width="100%" height="600px" transform="translate(50 50)" stroke-width="0" style="transition: all 0.3s ease 0s;"></path>
              </svg>