<!--?xml version="1.0" standalone="no"?-->
              <svg id="sw-js-blob-svg" viewBox="0 0 100 100" xmlns="http://www.w3.org/2000/svg" version="1.1">
                    <defs> 
                        <linearGradient id="sw-gradient" x1="0" x2="1" y1="1" y2="0">
                            <stop id="stop1" stop-color="rgba(248, 117, 55, 1)" offset="0%"></stop>
                            <stop id="stop2" stop-color="rgba(251, 168, 31, 1)" offset="100%"></stop>
                        </linearGradient>
                    </defs>
                <path fill="url(#sw-gradient)" d="M20.6,-31.5C26.7,-28.2,31.7,-22.5,36.3,-15.6C40.8,-8.8,45,-0.9,43.8,6.2C42.5,13.2,35.9,19.3,29.7,24.8C23.5,30.4,17.7,35.4,11,37.3C4.3,39.3,-3.3,38.1,-10.6,36C-18,33.9,-25.2,31,-30.9,25.9C-36.5,20.9,-40.6,13.6,-40.9,6.4C-41.1,-0.9,-37.5,-8.2,-33.5,-14.6C-29.5,-21.1,-25.2,-26.7,-19.5,-30.3C-13.9,-33.9,-6.9,-35.3,0.2,-35.6C7.3,-35.9,14.5,-34.9,20.6,-31.5Z" width="100%" height="100%" transform="translate(50 50)" stroke-width="0" style="transition: all 0.3s ease 0s;" stroke="url(#sw-gradient)"></path>
              </svg>