<!--?xml version="1.0" standalone="no"?-->
              <svg id="sw-js-blob-svg" viewBox="0 0 100 100" xmlns="http://www.w3.org/2000/svg" version="1.1">
                    <defs> 
                        <linearGradient id="sw-gradient" x1="0" x2="1" y1="1" y2="0">
                            <stop id="stop1" stop-color="rgba(39.531, 24.553, 24.553, 1)" offset="0%"></stop>
                            <stop id="stop2" stop-color="rgba(88.685, 210.113, 237.611, 1)" offset="100%"></stop>
                        </linearGradient>
                    </defs>
                <path fill="url(#sw-gradient)" d="M22.2,-38.2C28,-35.1,31.4,-27.6,34,-20.5C36.6,-13.4,38.3,-6.7,38.4,0.1C38.5,6.8,37,13.6,34,20.1C31.1,26.6,26.8,32.8,20.9,36.8C15,40.7,7.5,42.5,0.2,42.2C-7.1,41.9,-14.3,39.5,-20,35.4C-25.7,31.3,-30,25.6,-34.1,19.4C-38.1,13.2,-41.9,6.6,-42.5,-0.4C-43.2,-7.3,-40.6,-14.6,-36.3,-20.4C-32,-26.2,-26.1,-30.5,-19.7,-33.3C-13.4,-36.2,-6.7,-37.6,0.7,-38.9C8.2,-40.2,16.4,-41.4,22.2,-38.2Z" width="100%" height="100%" transform="translate(50 50)" stroke-width="0" style="transition: all 0.3s ease 0s;" stroke="url(#sw-gradient)"></path>
              </svg>