<svg xmlns="http://www.w3.org/2000/svg" viewBox="0 0 3000 3989" width="3000" height="3989" preserveAspectRatio="xMidYMid meet" style="width: 100%; height: 100%; transform: translate3d(0px, 0px, 0px);"><defs><clipPath id="__lottie_element_168"><rect width="3000" height="3989" x="0" y="0"></rect></clipPath></defs><g clip-path="url(#__lottie_element_168)"><g transform="matrix(4.199999809265137,0,0,4.199999809265137,-81.11576080322266,-191.51278686523438)" opacity="1" style="display: block;"><g opacity="1" transform="matrix(1,0,0,1,408.0400085449219,292.0710144042969)"><path fill="rgb(254,143,175)" fill-opacity="1" d=" M6.363999843597412,-132.625 C6.363999843597412,-132.625 -6.363999843597412,-132.625 -6.363999843597412,-132.625 C-6.363999843597412,-132.625 -29.975000381469727,-88.12300109863281 -29.975000381469727,-88.12300109863281 C-29.975000381469727,-88.12300109863281 -29.975000381469727,122.2760009765625 -29.975000381469727,122.2760009765625 C-29.975000381469727,127.99099731445312 -25.341999053955078,132.625 -19.625999450683594,132.625 C-19.625999450683594,132.625 19.625999450683594,132.625 19.625999450683594,132.625 C25.340999603271484,132.625 29.975000381469727,127.99099731445312 29.975000381469727,122.2760009765625 C29.975000381469727,122.2760009765625 29.975000381469727,-88.12300109863281 29.975000381469727,-88.12300109863281 C29.975000381469727,-88.12300109863281 6.363999843597412,-132.625 6.363999843597412,-132.625z"></path></g><g opacity="1" transform="matrix(1,0,0,1,408.0400085449219,238.32899475097656)"><path fill="rgb(185,227,215)" fill-opacity="1" d=" M29.975000381469727,-34.38199996948242 C29.975000381469727,-34.38199996948242 -29.974000930786133,14.362000465393066 -29.974000930786133,14.362000465393066 C-29.974000930786133,14.362000465393066 -29.974000930786133,34.38199996948242 -29.974000930786133,34.38199996948242 C-29.974000930786133,34.38199996948242 29.975000381469727,-16.538000106811523 29.975000381469727,-16.538000106811523 C29.975000381469727,-16.538000106811523 29.975000381469727,-34.38199996948242 29.975000381469727,-34.38199996948242z"></path></g><g opacity="1" transform="matrix(1,0,0,1,408.0400085449219,292.0710144042969)"><path fill="rgb(185,227,215)" fill-opacity="1" d=" M29.975000381469727,-34.38199996948242 C29.975000381469727,-34.38199996948242 -29.974000930786133,14.362000465393066 -29.974000930786133,14.362000465393066 C-29.974000930786133,14.362000465393066 -29.974000930786133,34.38199996948242 -29.974000930786133,34.38199996948242 C-29.974000930786133,34.38199996948242 29.975000381469727,-16.538000106811523 29.975000381469727,-16.538000106811523 C29.975000381469727,-16.538000106811523 29.975000381469727,-34.38199996948242 29.975000381469727,-34.38199996948242z"></path></g><g opacity="1" transform="matrix(1,0,0,1,408.0400085449219,345.81201171875)"><path fill="rgb(185,227,215)" fill-opacity="1" d=" M29.975000381469727,-34.38199996948242 C29.975000381469727,-34.38199996948242 -29.974000930786133,14.362000465393066 -29.974000930786133,14.362000465393066 C-29.974000930786133,14.362000465393066 -29.974000930786133,34.38199996948242 -29.974000930786133,34.38199996948242 C-29.974000930786133,34.38199996948242 29.975000381469727,-16.538000106811523 29.975000381469727,-16.538000106811523 C29.975000381469727,-16.538000106811523 29.975000381469727,-34.38199996948242 29.975000381469727,-34.38199996948242z"></path></g><g opacity="1" transform="matrix(1,0,0,1,408.03900146484375,394.9330139160156)"><path fill="rgb(185,227,215)" fill-opacity="1" d=" M-29.974000930786133,19.413999557495117 C-29.974000930786133,25.128999710083008 -25.340999603271484,29.761999130249023 -19.625999450683594,29.761999130249023 C-19.625999450683594,29.761999130249023 -19.09600067138672,29.761999130249023 -19.09600067138672,29.761999130249023 C-19.09600067138672,29.761999130249023 29.974000930786133,-11.918000221252441 29.974000930786133,-11.918000221252441 C29.974000930786133,-11.918000221252441 29.974000930786133,-29.761999130249023 29.974000930786133,-29.761999130249023 C29.974000930786133,-29.761999130249023 -29.974000930786133,18.98200035095215 -29.974000930786133,18.98200035095215 C-29.974000930786133,18.98200035095215 -29.974000930786133,19.413999557495117 -29.974000930786133,19.413999557495117z"></path></g><g opacity="1" transform="matrix(1,0,0,1,408.0400085449219,150.468994140625)"><path fill="rgb(211,134,110)" fill-opacity="1" d=" M1.3109999895095825,8.97700023651123 C1.3109999895095825,8.97700023651123 -1.3109999895095825,8.97700023651123 -1.3109999895095825,8.97700023651123 C-1.3109999895095825,8.97700023651123 -1.3109999895095825,-8.97700023651123 -1.3109999895095825,-8.97700023651123 C-1.3109999895095825,-8.97700023651123 1.3109999895095825,-8.97700023651123 1.3109999895095825,-8.97700023651123 C1.3109999895095825,-8.97700023651123 1.3109999895095825,8.97700023651123 1.3109999895095825,8.97700023651123z"></path></g></g><g transform="matrix(4.703201770782471,0,0,5.39141845703125,-286.4156188964844,-360.0984191894531)" opacity="1" style="display: block;"><g opacity="1" transform="matrix(1,0,0,1,408.0400085449219,113.96499633789062)"><path fill="rgb(255,209,126)" fill-opacity="1" d=" M0,-29.558000564575195 C0,-29.558000564575195 -24.155000686645508,-6.327000141143799 -22.849000930786133,7.64900016784668 C-21.542999267578125,21.625999450683594 0,29.558000564575195 0,29.558000564575195 C0,29.558000564575195 21.542999267578125,21.625999450683594 22.849000930786133,7.64900016784668 C24.155000686645508,-6.327000141143799 0,-29.558000564575195 0,-29.558000564575195z"></path></g><g opacity="1" transform="matrix(1,0,0,1,408.03900146484375,127.28099822998047)"><path fill="rgb(254,168,135)" fill-opacity="1" d=" M0.0010000000474974513,-16.243000030517578 C0.0010000000474974513,-16.243000030517578 -13.27299976348877,-3.4769999980926514 -12.555000305175781,4.203000068664551 C-11.838000297546387,11.883999824523926 0.0010000000474974513,16.243000030517578 0.0010000000474974513,16.243000030517578 C0.0010000000474974513,16.243000030517578 11.84000015258789,11.883999824523926 12.557000160217285,4.203000068664551 C13.27400016784668,-3.4769999980926514 0.0010000000474974513,-16.243000030517578 0.0010000000474974513,-16.243000030517578z"></path></g></g><g transform="matrix(4.199999809265137,0,0,4.199999809265137,-81.11576080322266,-191.51278686523438)" opacity="1" style="display: block;"><g opacity="1" transform="matrix(1,0,0,1,409.2980041503906,479.5840148925781)"><path fill="rgb(255,244,227)" fill-opacity="1" d=" M171.74600219726562,58.88600158691406 C172.0760040283203,48.92499923706055 171.3509979248047,38.970001220703125 167.83900451660156,29.71500015258789 C162.92999267578125,16.780000686645508 150.60400390625,4.769000053405762 136.78599548339844,4.067999839782715 C-35.10599899291992,-1.5499999523162842 -103.5270004272461,-60.676998138427734 -103.5270004272461,-60.676998138427734 C-124.92900085449219,-56.06100082397461 -146.80599975585938,-50.43600082397461 -164.38900756835938,-37.38800048828125 C-167.02999877929688,-35.42900085449219 -169.6020050048828,-33.270999908447266 -172.0760040283203,-30.979000091552734 C-96.9010009765625,33.345001220703125 11.607000350952148,41.03799819946289 106.08799743652344,53.68299865722656 C126.97100067138672,56.47800064086914 149.9340057373047,60.676998138427734 171.74600219726562,58.88600158691406z"></path></g><g opacity="1" transform="matrix(1,0,0,1,397.2950134277344,498.4549865722656)"><path fill="rgb(244,231,212)" fill-opacity="1" d=" M56.33399963378906,47.176998138427734 C85.62100219726562,49.12099838256836 114.98500061035156,49.8489990234375 144.33399963378906,49.51900100708008 C157.31399536132812,49.37300109863281 170.2899932861328,48.97999954223633 183.25999450683594,48.43000030517578 C183.48599243164062,45.63399887084961 183.65499877929688,42.82699966430664 183.74899291992188,40.01599884033203 C161.93600463867188,41.80699920654297 138.9739990234375,37.608001708984375 118.08999633789062,34.8129997253418 C23.610000610351562,22.167999267578125 -84.89800262451172,14.475000381469727 -160.07200622558594,-49.8489990234375 C-173.6269989013672,-37.2859992980957 -183.74899291992188,-20.125999450683594 -180.83299255371094,-2.5280001163482666 C-162.51600646972656,9.545000076293945 -139.90899658203125,13.552000045776367 -118.822998046875,19.166000366210938 C-61.58100128173828,34.40800094604492 -2.73799991607666,43.25699996948242 56.33399963378906,47.176998138427734z"></path></g><g opacity="1" transform="matrix(1,0,0,1,431.15301513671875,405.010009765625)"><path fill="rgb(255,244,227)" fill-opacity="1" d=" M114.93199920654297,78.64199829101562 C116.9990005493164,59.707000732421875 106.21099853515625,41.18899917602539 91.50700378417969,29.082000732421875 C76.8030014038086,16.974000930786133 58.57500076293945,10.133000373840332 40.6609992980957,3.6640000343322754 C37.27799987792969,2.441999912261963 33.78200149536133,1.440999984741211 30.222000122070312,0.5479999780654907 C29.7549991607666,0.5740000009536743 29.28700065612793,0.5809999704360962 28.820999145507812,0.6100000143051147 C16.773000717163086,1.3680000305175781 4.692999839782715,3.433000087738037 -7.302999973297119,2.0820000171661377 C-19.299999237060547,0.7310000061988831 -31.652999877929688,-4.788000106811523 -37.43600082397461,-15.383999824523926 C-44.2140007019043,-27.802000045776367 -39.981998443603516,-43.90700149536133 -31.000999450683594,-54.83700180053711 C-23.13599967956543,-64.40799713134766 -12.307000160217285,-70.88700103759766 -1.3420000076293945,-76.7959976196289 C-28.21500015258789,-78.64199829101562 -55.66600036621094,-71.14299774169922 -77.7959976196289,-55.77199935913086 C-94.46600341796875,-44.19300079345703 -108.03299713134766,-27.475000381469727 -116.9990005493164,-8.843000411987305 C-99.9990005493164,9.923999786376953 -31.59600067138672,73.85299682617188 114.93199920654297,78.64199829101562z"></path></g><g opacity="1" transform="matrix(1,0,0,1,424.1570129394531,368.3280029296875)"><path fill="rgb(244,231,212)" fill-opacity="1" d=" M-24.0049991607666,-18.15399932861328 C-32.986000061035156,-7.223999977111816 -37.21799850463867,8.880000114440918 -30.440000534057617,21.29800033569336 C-24.656999588012695,31.893999099731445 -12.303999900817871,37.41299819946289 -0.3070000112056732,38.763999938964844 C11.687999725341797,40.1150016784668 23.76799964904785,38.04999923706055 35.816001892089844,37.29199981689453 C36.28300094604492,37.262001037597656 36.750999450683594,37.255001068115234 37.21799850463867,37.22999954223633 C26.479999542236328,34.5369987487793 15.15999984741211,32.83100128173828 4.609000205993652,29.054000854492188 C-1.0390000343322754,27.031999588012695 -6.7270002365112305,24.534000396728516 -10.843999862670898,20.17099952697754 C-18.996000289916992,11.531000137329102 -18.81999969482422,-2.5190000534057617 -13.631999969482422,-13.204999923706055 C-8.442999839782715,-23.889999389648438 0.7549999952316284,-31.98900032043457 9.715999603271484,-39.78499984741211 C8.36400032043457,-39.92599868774414 7.008999824523926,-40.02199935913086 5.6539998054504395,-40.1150016784668 C-5.311999797821045,-34.20500183105469 -16.139999389648438,-27.725000381469727 -24.0049991607666,-18.15399932861328z"></path></g><g opacity="1" transform="matrix(1,0,0,1,425.9280090332031,439.9100036621094)"><path fill="rgb(244,231,212)" fill-opacity="1" d=" M-111.77400207519531,-43.74300003051758 C-115.31099700927734,-36.393001556396484 -118.15399932861328,-28.7549991607666 -120.15599822998047,-21.003000259399414 C-120.15599822998047,-21.003000259399414 -51.736000061035156,38.125 120.15599822998047,43.74300003051758 C-26.371999740600586,38.95399856567383 -94.77400207519531,-24.976999282836914 -111.77400207519531,-43.74300003051758z"></path></g><g opacity="1" transform="matrix(1,0,0,1,366.1319885253906,706.4149780273438)"><path fill="rgb(255,244,227)" fill-opacity="1" d=" M-225.32899475097656,-69.40399932861328 C-230.73899841308594,-60.28900146484375 -233.66200256347656,-50.71500015258789 -233.66200256347656,-40.82899856567383 C-233.66200256347656,20.051000595092773 -124.36100006103516,69.40399932861328 10.468000411987305,69.40399932861328 C110.04100036621094,69.40399932861328 195.67799377441406,42.48400115966797 233.66200256347656,3.884999990463257 C194.03500366210938,-8.38599967956543 151.6909942626953,-13.928000450134277 110.34500122070312,-19.3799991607666 C-1.8170000314712524,-34.16999816894531 -113.72599792480469,-50.8650016784668 -225.32899475097656,-69.40399932861328z"></path></g><g opacity="1" transform="matrix(1,0,0,1,377.8399963378906,661.4240112304688)"><path fill="rgb(244,231,212)" fill-opacity="1" d=" M28.009000778198242,-9.343999862670898 C-62.00299835205078,-16.284000396728516 -153.572998046875,-21.5310001373291 -239.2989959716797,-48.875999450683594 C-237.84800720214844,-42.91400146484375 -235.23599243164062,-37.27000045776367 -231.7220001220703,-32.244998931884766 C-233.7100067138672,-29.67799949645996 -235.46400451660156,-27.06100082397461 -237.03599548339844,-24.41200065612793 C-125.43299865722656,-5.873000144958496 -13.52400016784668,10.821999549865723 98.63800048828125,25.61199951171875 C139.98399353027344,31.062999725341797 182.32699584960938,36.60499954223633 221.95399475097656,48.875999450683594 C229.95700073242188,40.74399948120117 235.843994140625,32.095001220703125 239.2989959716797,23.066999435424805 C171.26699829101562,3.2119998931884766 99.06099700927734,-3.865999937057495 28.009000778198242,-9.343999862670898z"></path></g><g opacity="1" transform="matrix(1,0,0,1,385.8940124511719,555.2490234375)"><path fill="rgb(255,244,227)" fill-opacity="1" d=" M20.500999450683594,40.46099853515625 C50.84400177001953,43.55799865722656 81.2020034790039,46.65599822998047 111.66200256347656,48.229000091552734 C146.21299743652344,50.01300048828125 182.45199584960938,50.310001373291016 215.34500122070312,59.321998596191406 C221.58299255371094,51.3650016784668 225.1999969482422,41.263999938964844 223.42999267578125,31.410999298095703 C222.06700134277344,23.822999954223633 217.75999450683594,17.139999389648438 213.5449981689453,10.6850004196167 C208.85899353027344,3.509000062942505 202.927001953125,-4.427000045776367 194.37100219726562,-4.934000015258789 C194.47799682617188,-6.072000026702881 194.56700134277344,-7.218999862670898 194.66000366210938,-8.36400032043457 C181.6909942626953,-7.814000129699707 168.71400451660156,-7.421000003814697 155.73399353027344,-7.275000095367432 C126.38600158691406,-6.945000171661377 97.02200317382812,-7.672999858856201 67.73500061035156,-9.616999626159668 C8.663999557495117,-13.536999702453613 -50.180999755859375,-22.386999130249023 -107.4229965209961,-37.62799835205078 C-128.50900268554688,-43.242000579833984 -151.11399841308594,-47.249000549316406 -169.4320068359375,-59.321998596191406 C-169.33700561523438,-58.75 -169.28399658203125,-58.18000030517578 -169.16099548339844,-57.606998443603516 C-180.73199462890625,-58.176998138427734 -192.6490020751953,-56.00299835205078 -202.53399658203125,-49.96200180053711 C-207.2449951171875,-47.08300018310547 -211.40199279785156,-43.39699935913086 -215.53199768066406,-39.733001708984375 C-218.97300720214844,-36.67900085449219 -222.46299743652344,-33.53099822998047 -225.1999969482422,-29.87299919128418 C-197.81199645996094,-5.797999858856201 -162.51100158691406,8.277000427246094 -127.05000305175781,17.614999771118164 C-78.86900329589844,30.301000595092773 -29.065000534057617,35.402000427246094 20.500999450683594,40.46099853515625z"></path></g><g opacity="1" transform="matrix(1,0,0,1,377.3399963378906,574.1339721679688)"><path fill="rgb(244,231,212)" fill-opacity="1" d=" M-60.45100021362305,28.14699935913086 C-42.39699935913086,30.39299964904785 -24.24799919128418,31.770999908447266 -6.10699987411499,33.14899826049805 C11.484999656677246,34.48500061035156 29.07699966430664,35.81999969482422 46.66899871826172,37.15599822998047 C80.51599884033203,39.72600173950195 114.38700103759766,42.297000885009766 148.3260040283203,42.928001403808594 C173.7480010986328,43.400001525878906 199.86300659179688,42.94200134277344 224.36199951171875,48.757999420166016 C223.04800415039062,47.347999572753906 221.6909942626953,45.948001861572266 220.2530059814453,44.56800079345703 C221.54800415039062,43.275001525878906 222.76199340820312,41.887001037597656 223.8990020751953,40.4370002746582 C191.00599670410156,31.424999237060547 154.76600646972656,31.128000259399414 120.21600341796875,29.3439998626709 C89.75599670410156,27.770999908447266 59.39699935913086,24.67300033569336 29.054000854492188,21.576000213623047 C-20.511999130249023,16.517000198364258 -70.31600189208984,11.416000366210938 -118.49700164794922,-1.2710000276565552 C-153.95799255371094,-10.607999801635742 -189.25799560546875,-24.683000564575195 -216.64599609375,-48.757999420166016 C-217.7779998779297,-47.24399948120117 -218.79600524902344,-45.65299987792969 -219.60699462890625,-43.93000030517578 C-224.36300659179688,-33.821998596191406 -221.5989990234375,-21.886999130249023 -218.0330047607422,-11.300999641418457 C-217.58599853515625,-9.973999977111816 -217.1269989013672,-8.529999732971191 -217.58099365234375,-7.205999851226807 C-217.63400268554688,-7.051000118255615 -217.73599243164062,-6.927999973297119 -217.8090057373047,-6.7870001792907715 C-193.95799255371094,3.4260001182556152 -167.656005859375,8.847999572753906 -142.01600646972656,13.954000473022461 C-114.94400024414062,19.3439998626709 -87.84300231933594,24.73900032043457 -60.45100021362305,28.14699935913086z"></path></g><g opacity="1" transform="matrix(1,0,0,1,377.2959899902344,625.9190063476562)"><path fill="rgb(255,244,227)" fill-opacity="1" d=" M239.843994140625,58.571998596191406 C242.1959991455078,52.42900085449219 243.4340057373047,46.11399841308594 243.4340057373047,39.66699981689453 C243.4340057373047,24.525999069213867 236.64199829101562,10.105999946594238 224.40699768066406,-3.0269999504089355 C199.9080047607422,-8.843000411987305 173.79200744628906,-8.383999824523926 148.37100219726562,-8.857000350952148 C114.43199920654297,-9.487000465393066 80.56099700927734,-12.0600004196167 46.7130012512207,-14.630000114440918 C29.121999740600586,-15.96500015258789 11.529999732971191,-17.299999237060547 -6.061999797821045,-18.63599967956543 C-24.202999114990234,-20.013999938964844 -42.35200119018555,-21.392000198364258 -60.40599822998047,-23.63800048828125 C-87.7979965209961,-27.045000076293945 -114.89900207519531,-32.441001892089844 -141.9709930419922,-37.83100128173828 C-167.61099243164062,-42.93600082397461 -193.91299438476562,-48.35900115966797 -217.76400756835938,-58.57099914550781 C-218.38699340820312,-57.362998962402344 -219.65499877929688,-56.56700134277344 -220.87399291992188,-55.89699935913086 C-237.1699981689453,-46.933998107910156 -243.4340057373047,-33.14799880981445 -238.85000610351562,-13.696000099182129 C-238.82400512695312,-13.586000442504883 -238.7830047607422,-13.480999946594238 -238.75599670410156,-13.371000289916992 C-153.0290069580078,13.973999977111816 -61.459999084472656,19.22100067138672 28.55299949645996,26.160999298095703 C99.60399627685547,31.63800048828125 171.81199645996094,38.71699905395508 239.843994140625,58.571998596191406z"></path></g></g><g transform="matrix(4.199999809265137,0,0,4.199999809265137,-81.11576080322266,-191.51278686523438)" opacity="1" style="display: block;"><g opacity="1" transform="matrix(1,0,0,1,433.27398681640625,807.5869750976562)"><path fill="rgb(255,182,205)" fill-opacity="1" d=" M7.243000030517578,-146.90699768066406 C7.243000030517578,-146.90699768066406 -17.863000869750977,-133.05599975585938 -17.863000869750977,-133.05599975585938 C-17.863000869750977,-133.05599975585938 -28.020999908447266,146.90699768066406 -28.020999908447266,146.90699768066406 C-18.33099937438965,146.7480010986328 -8.897000312805176,146.51100158691406 0.2409999966621399,146.20399475097656 C0.2409999966621399,146.20399475097656 28.020000457763672,-133.48800659179688 28.020000457763672,-133.48800659179688 C28.020000457763672,-133.48800659179688 7.243000030517578,-146.90699768066406 7.243000030517578,-146.90699768066406z"></path></g><g opacity="1" transform="matrix(1,0,0,1,395.6990051269531,807.7059936523438)"><path fill="rgb(255,197,218)" fill-opacity="1" d=" M-0.6299999952316284,-147.0260009765625 C-0.6299999952316284,-147.0260009765625 -19.714000701904297,-133.60699462890625 -19.714000701904297,-133.60699462890625 C-19.714000701904297,-133.60699462890625 -19.714000701904297,147.0260009765625 -19.714000701904297,147.0260009765625 C-9.755999565124512,147.0260009765625 0.017000000923871994,146.9429931640625 9.555000305175781,146.78799438476562 C9.555000305175781,146.78799438476562 19.714000701904297,-133.1750030517578 19.714000701904297,-133.1750030517578 C19.714000701904297,-133.1750030517578 -0.6299999952316284,-147.0260009765625 -0.6299999952316284,-147.0260009765625z"></path></g><g opacity="1" transform="matrix(1,0,0,1,469.1109924316406,807.2360229492188)"><path fill="rgb(255,197,218)" fill-opacity="1" d=" M9.425000190734863,-146.55499267578125 C9.425000190734863,-146.55499267578125 -7.815999984741211,-133.13600158691406 -7.815999984741211,-133.13600158691406 C-7.815999984741211,-133.13600158691406 -35.595001220703125,146.55499267578125 -35.595001220703125,146.55499267578125 C-22.9689998626709,146.1320037841797 -10.942000389099121,145.57200622558594 0.35499998927116394,144.89300537109375 C0.35499998927116394,144.89300537109375 35.595001220703125,-130.10699462890625 35.595001220703125,-130.10699462890625 C35.595001220703125,-130.10699462890625 9.425000190734863,-146.55499267578125 9.425000190734863,-146.55499267578125z"></path></g><g opacity="1" transform="matrix(1,0,0,1,583.447021484375,805.3989868164062)"><path fill="rgb(255,182,205)" fill-opacity="1" d=" M29.202999114990234,-140.39100646972656 C29.202999114990234,-140.39100646972656 3.808000087738037,-125.38500213623047 3.808000087738037,-125.38500213623047 C3.808000087738037,-125.38500213623047 -49.979000091552734,140.39100646972656 -49.979000091552734,140.39100646972656 C-31.09600067138672,137.3470001220703 -20.0939998626709,133.7220001220703 -20.0939998626709,129.82899475097656 C-20.0939998626709,129.82899475097656 49.979000091552734,-119.8499984741211 49.979000091552734,-119.8499984741211 C49.979000091552734,-119.8499984741211 29.202999114990234,-140.39100646972656 29.202999114990234,-140.39100646972656z"></path></g><g opacity="1" transform="matrix(1,0,0,1,508.8819885253906,808.5689697265625)"><path fill="rgb(255,182,205)" fill-opacity="1" d=" M17.77400016784668,-143.55999755859375 C17.77400016784668,-143.55999755859375 -4.176000118255615,-131.44000244140625 -4.176000118255615,-131.44000244140625 C-4.176000118255615,-131.44000244140625 -39.41600036621094,143.55999755859375 -39.41600036621094,143.55999755859375 C-27.364999771118164,142.83599853515625 -16.14900016784668,141.97900390625 -5.984000205993652,141.00399780273438 C-5.984000205993652,141.00399780273438 39.41600036621094,-130.57400512695312 39.41600036621094,-130.57400512695312 C39.41600036621094,-130.57400512695312 17.77400016784668,-143.55999755859375 17.77400016784668,-143.55999755859375z"></path></g><g opacity="1" transform="matrix(1,0,0,1,545.0759887695312,807.291015625)"><path fill="rgb(255,197,218)" fill-opacity="1" d=" M24.79800033569336,-142.28199768066406 C24.79800033569336,-142.28199768066406 3.2219998836517334,-129.29600524902344 3.2219998836517334,-129.29600524902344 C3.2219998836517334,-129.29600524902344 -42.17900085449219,142.28199768066406 -42.17900085449219,142.28199768066406 C-30.516000747680664,141.16400146484375 -20.246000289916992,139.89199829101562 -11.609000205993652,138.49899291992188 C-11.609000205993652,138.49899291992188 42.17900085449219,-127.2760009765625 42.17900085449219,-127.2760009765625 C42.17900085449219,-127.2760009765625 24.79800033569336,-142.28199768066406 24.79800033569336,-142.28199768066406z"></path></g><g opacity="1" transform="matrix(1,0,0,1,318.70001220703125,807.5869750976562)"><path fill="rgb(255,197,218)" fill-opacity="1" d=" M-7.243000030517578,-146.90699768066406 C-7.243000030517578,-146.90699768066406 17.863000869750977,-133.05599975585938 17.863000869750977,-133.05599975585938 C17.863000869750977,-133.05599975585938 28.020999908447266,146.90699768066406 28.020999908447266,146.90699768066406 C18.33099937438965,146.7480010986328 8.897000312805176,146.51100158691406 -0.2409999966621399,146.20399475097656 C-0.2409999966621399,146.20399475097656 -28.020000457763672,-133.48800659179688 -28.020000457763672,-133.48800659179688 C-28.020000457763672,-133.48800659179688 -7.243000030517578,-146.90699768066406 -7.243000030517578,-146.90699768066406z"></path></g><g opacity="1" transform="matrix(1,0,0,1,356.2760009765625,807.7059936523438)"><path fill="rgb(255,182,205)" fill-opacity="1" d=" M0.6309999823570251,-147.0260009765625 C0.6309999823570251,-147.0260009765625 19.714000701904297,-133.60699462890625 19.714000701904297,-133.60699462890625 C19.714000701904297,-133.60699462890625 19.714000701904297,147.0260009765625 19.714000701904297,147.0260009765625 C9.755999565124512,147.0260009765625 -0.017000000923871994,146.9429931640625 -9.555000305175781,146.78799438476562 C-9.555000305175781,146.78799438476562 -19.714000701904297,-133.1750030517578 -19.714000701904297,-133.1750030517578 C-19.714000701904297,-133.1750030517578 0.6309999823570251,-147.0260009765625 0.6309999823570251,-147.0260009765625z"></path></g><g opacity="1" transform="matrix(1,0,0,1,282.864013671875,807.2360229492188)"><path fill="rgb(255,182,205)" fill-opacity="1" d=" M-9.425000190734863,-146.55499267578125 C-9.425000190734863,-146.55499267578125 7.815999984741211,-133.13600158691406 7.815999984741211,-133.13600158691406 C7.815999984741211,-133.13600158691406 35.595001220703125,146.55499267578125 35.595001220703125,146.55499267578125 C22.9689998626709,146.1320037841797 10.942000389099121,145.57200622558594 -0.35499998927116394,144.89300537109375 C-0.35499998927116394,144.89300537109375 -35.595001220703125,-130.10699462890625 -35.595001220703125,-130.10699462890625 C-35.595001220703125,-130.10699462890625 -9.425000190734863,-146.55499267578125 -9.425000190734863,-146.55499267578125z"></path></g><g opacity="1" transform="matrix(1,0,0,1,168.5279998779297,805.3989868164062)"><path fill="rgb(255,197,218)" fill-opacity="1" d=" M-29.20199966430664,-140.39100646972656 C-29.20199966430664,-140.39100646972656 -3.809000015258789,-125.38500213623047 -3.809000015258789,-125.38500213623047 C-3.809000015258789,-125.38500213623047 49.979000091552734,140.39100646972656 49.979000091552734,140.39100646972656 C31.09600067138672,137.3470001220703 20.093000411987305,133.7220001220703 20.093000411987305,129.82899475097656 C20.093000411987305,129.82899475097656 -49.97999954223633,-119.8499984741211 -49.97999954223633,-119.8499984741211 C-49.97999954223633,-119.8499984741211 -29.20199966430664,-140.39100646972656 -29.20199966430664,-140.39100646972656z"></path></g><g opacity="1" transform="matrix(1,0,0,1,243.0919952392578,808.5689697265625)"><path fill="rgb(255,197,218)" fill-opacity="1" d=" M-17.773000717163086,-143.55999755859375 C-17.773000717163086,-143.55999755859375 4.177000045776367,-131.44000244140625 4.177000045776367,-131.44000244140625 C4.177000045776367,-131.44000244140625 39.41600036621094,143.55999755859375 39.41600036621094,143.55999755859375 C27.364999771118164,142.83599853515625 16.149999618530273,141.97900390625 5.985000133514404,141.00399780273438 C5.985000133514404,141.00399780273438 -39.41600036621094,-130.57400512695312 -39.41600036621094,-130.57400512695312 C-39.41600036621094,-130.57400512695312 -17.773000717163086,-143.55999755859375 -17.773000717163086,-143.55999755859375z"></path></g><g opacity="1" transform="matrix(1,0,0,1,206.8979949951172,807.291015625)"><path fill="rgb(255,182,205)" fill-opacity="1" d=" M-24.79800033569336,-142.28199768066406 C-24.79800033569336,-142.28199768066406 -3.2219998836517334,-129.29600524902344 -3.2219998836517334,-129.29600524902344 C-3.2219998836517334,-129.29600524902344 42.17900085449219,142.28199768066406 42.17900085449219,142.28199768066406 C30.516000747680664,141.16400146484375 20.246999740600586,139.89199829101562 11.609000205993652,138.49899291992188 C11.609000205993652,138.49899291992188 -42.17900085449219,-127.2760009765625 -42.17900085449219,-127.2760009765625 C-42.17900085449219,-127.2760009765625 -24.79800033569336,-142.28199768066406 -24.79800033569336,-142.28199768066406z"></path></g></g><g transform="matrix(4.199999809265137,0,0,4.199999809265137,-81.11576080322266,-191.51278686523438)" opacity="1" style="display: block;"><g opacity="1" transform="matrix(1,0,0,1,546.0850219726562,538.9010009765625)"><path fill="rgb(122,202,255)" fill-opacity="1" d=" M19.937000274658203,0 C19.937000274658203,11.01099967956543 11.010000228881836,19.93600082397461 0,19.93600082397461 C-11.01099967956543,19.93600082397461 -19.937000274658203,11.01099967956543 -19.937000274658203,0 C-19.937000274658203,-11.01099967956543 -11.01099967956543,-19.93600082397461 0,-19.93600082397461 C11.010000228881836,-19.93600082397461 19.937000274658203,-11.01099967956543 19.937000274658203,0z"></path></g><g opacity="1" transform="matrix(1,0,0,1,327.5780029296875,448.6059875488281)"><path fill="rgb(122,202,255)" fill-opacity="1" d=" M19.93600082397461,0 C19.93600082397461,11.01099967956543 11.010000228881836,19.93600082397461 0,19.93600082397461 C-11.01099967956543,19.93600082397461 -19.937000274658203,11.01099967956543 -19.937000274658203,0 C-19.937000274658203,-11.01099967956543 -11.01099967956543,-19.93600082397461 0,-19.93600082397461 C11.010000228881836,-19.93600082397461 19.93600082397461,-11.01099967956543 19.93600082397461,0z"></path></g><g opacity="1" transform="matrix(1,0,0,1,375.9849853515625,558.8369750976562)"><path fill="rgb(122,202,255)" fill-opacity="1" d=" M19.93600082397461,0 C19.93600082397461,11.01099967956543 11.010000228881836,19.93600082397461 0,19.93600082397461 C-11.01099967956543,19.93600082397461 -19.937000274658203,11.01099967956543 -19.937000274658203,0 C-19.937000274658203,-11.01099967956543 -11.01099967956543,-19.93600082397461 0,-19.93600082397461 C11.010000228881836,-19.93600082397461 19.93600082397461,-11.01099967956543 19.93600082397461,0z"></path></g><g opacity="1" transform="matrix(1,0,0,1,232.5540008544922,614.573974609375)"><path fill="rgb(122,202,255)" fill-opacity="1" d=" M19.93600082397461,0 C19.93600082397461,11.01099967956543 11.010000228881836,19.93600082397461 0,19.93600082397461 C-11.01099967956543,19.93600082397461 -19.937000274658203,11.01099967956543 -19.937000274658203,0 C-19.937000274658203,-11.01099967956543 -11.01099967956543,-19.93600082397461 0,-19.93600082397461 C11.010000228881836,-19.93600082397461 19.93600082397461,-11.01099967956543 19.93600082397461,0z"></path></g><g opacity="1" transform="matrix(1,0,0,1,486.7879943847656,637.010986328125)"><path fill="rgb(122,202,255)" fill-opacity="1" d=" M19.937000274658203,0 C19.937000274658203,11.01099967956543 11.01099967956543,19.93600082397461 0.0010000000474974513,19.93600082397461 C-11.010000228881836,19.93600082397461 -19.93600082397461,11.01099967956543 -19.93600082397461,0 C-19.93600082397461,-11.01099967956543 -11.010000228881836,-19.93600082397461 0.0010000000474974513,-19.93600082397461 C11.01099967956543,-19.93600082397461 19.937000274658203,-11.01099967956543 19.937000274658203,0z"></path></g></g><g transform="matrix(4.199999809265137,0,0,4.199999809265137,-81.11576080322266,-191.51278686523438)" opacity="1" style="display: block;"><g opacity="1" transform="matrix(1,0,0,1,509.22198486328125,385.68701171875)"><path fill="rgb(254,143,175)" fill-opacity="1" d=" M-54.96900177001953,64.5260009765625 C-54.96900177001953,64.5260009765625 -71.05699920654297,-17.95599937438965 -71.05699920654297,-17.95599937438965 C-73.74500274658203,-31.73699951171875 -70.83599853515625,-46.24800109863281 -62.19200134277344,-57.3129997253418 C-55.34700012207031,-66.07599639892578 -45.65999984741211,-72.3759994506836 -34.76100158691406,-74.13200378417969 C-12.980999946594238,-77.64199829101562 5.392000198364258,-61.683998107910156 6.2829999923706055,-38.49100112915039 C6.2829999923706055,-38.49100112915039 6.7170000076293945,-27.149999618530273 6.7170000076293945,-27.149999618530273 C6.7170000076293945,-27.149999618530273 17.11199951171875,-33.37099838256836 17.11199951171875,-33.37099838256836 C36.99300003051758,-45.26900100708008 60.354000091552734,-38.5260009765625 69.29199981689453,-18.31100082397461 C73.38899993896484,-9.045999526977539 73.74500274658203,1.440999984741211 71.01499938964844,11.229999542236328 C66.96099853515625,25.763999938964844 55.83300018310547,37.28099822998047 41.83300018310547,42.9109992980957 C41.83300018310547,42.9109992980957 -36.66600036621094,74.47599792480469 -36.66600036621094,74.47599792480469 C-44.53799819946289,77.64099884033203 -53.345001220703125,72.85299682617188 -54.96900177001953,64.5260009765625z"></path></g><g opacity="1" transform="matrix(1,0,0,1,486.7879943847656,330.8089904785156)"><path fill="rgb(255,255,255)" fill-opacity="1" d=" M8.251999855041504,0 C8.251999855041504,4.558000087738037 4.557000160217285,8.251999855041504 0,8.251999855041504 C-4.558000087738037,8.251999855041504 -8.251999855041504,4.558000087738037 -8.251999855041504,0 C-8.251999855041504,-4.558000087738037 -4.558000087738037,-8.251999855041504 0,-8.251999855041504 C4.557000160217285,-8.251999855041504 8.251999855041504,-4.558000087738037 8.251999855041504,0z"></path></g><g opacity="1" transform="matrix(1,0,0,1,460.6109924316406,367.5450134277344)"><path fill="rgb(255,255,255)" fill-opacity="1" d=" M8.815999984741211,-27.829999923706055 C-16.256000518798828,-20.56100082397461 -4.46999979019165,21.136999130249023 -3.8350000381469727,40.73699951171875 C-6.882999897003174,27.5 -10.626999855041504,14.467000007629395 -12.781000137329102,0.796999990940094 C-15.225000381469727,-13.907999992370605 -10.031999588012695,-32.755001068115234 5.633999824523926,-38.21900177001953 C12.904000282287598,-40.736000061035156 16.256999969482422,-29.819000244140625 8.815999984741211,-27.829999923706055z"></path></g></g><g transform="matrix(4.199999809265137,0,0,4.199999809265137,-81.11576080322266,-191.51278686523438)" opacity="1" style="display: block;"><g opacity="1" transform="matrix(0.015542376786470413,0,0,0.015542376786470413,252.49000549316406,331.9779968261719)"><path fill="rgb(255,209,126)" fill-opacity="1" d=" M55.152000427246094,0 C15.105999946594238,8.342000007629395 8.343000411987305,15.104999542236328 0.0010000000474974513,55.1510009765625 C-8.342000007629395,15.104999542236328 -15.104999542236328,8.342000007629395 -55.152000427246094,0 C-15.104999542236328,-8.342000007629395 -8.342000007629395,-15.104999542236328 0.0010000000474974513,-55.1510009765625 C8.343000411987305,-15.104999542236328 15.105999946594238,-8.342000007629395 55.152000427246094,0z"></path></g><g opacity="1" transform="matrix(0.38121500611305237,0,0,0.38121500611305237,193.8769989013672,271.0050048828125)"><path fill="rgb(255,209,126)" fill-opacity="1" d=" M30.138999938964844,0 C8.255000114440918,4.559000015258789 4.559000015258789,8.253999710083008 0.0010000000474974513,30.13800048828125 C-4.558000087738037,8.253999710083008 -8.255000114440918,4.559000015258789 -30.138999938964844,0 C-8.255000114440918,-4.559000015258789 -4.558000087738037,-8.255000114440918 0.0010000000474974513,-30.13800048828125 C4.559000015258789,-8.255000114440918 8.255000114440918,-4.559000015258789 30.138999938964844,0z"></path></g><g opacity="1" transform="matrix(0.015542376786470413,0,0,0.015542376786470413,539.7360229492188,276.82598876953125)"><path fill="rgb(255,209,126)" fill-opacity="1" d=" M30.13800048828125,0 C8.253999710083008,4.559000015258789 4.558000087738037,8.253999710083008 0,30.13800048828125 C-4.559000015258789,8.253999710083008 -8.255000114440918,4.559000015258789 -30.138999938964844,0 C-8.255000114440918,-4.559000015258789 -4.559000015258789,-8.253999710083008 0,-30.13800048828125 C4.558000087738037,-8.253999710083008 8.253999710083008,-4.559000015258789 30.13800048828125,0z"></path></g></g></g></svg>