<svg xmlns="http://www.w3.org/2000/svg" viewBox="0 0 512 512" width="512" height="512" preserveAspectRatio="xMidYMid meet" style="width: 100%; height: 100%; transform: translate3d(0px, 0px, 0px);"><defs><clipPath id="__lottie_element_3"><rect width="512" height="512" x="0" y="0"></rect></clipPath></defs><g clip-path="url(#__lottie_element_3)"><g transform="matrix(0.9343000054359436,0,0,1,258.57562255859375,239.04901123046875)" opacity="1" style="display: block;"><g opacity="1" transform="matrix(1,0,0,1,1.7869999408721924,0.5889999866485596)"><path fill="rgb(92,180,151)" fill-opacity="1" d=" M-8.763999938964844,-103.4209976196289 C-8.763999938964844,-103.4209976196289 -8.854000091552734,175.4810028076172 -8.854000091552734,175.4810028076172 C-8.854000091552734,175.4810028076172 181.22799682617188,207.8419952392578 181.22799682617188,207.8419952392578 C181.22799682617188,207.8419952392578 182.4949951171875,-76.04000091552734 182.4949951171875,-76.04000091552734 C182.4949951171875,-76.04000091552734 -8.763999938964844,-103.4209976196289 -8.763999938964844,-103.4209976196289z"></path></g><g opacity="1" transform="matrix(1,0,0,1,93.0479965209961,49.77799987792969)"><g opacity="1" transform="matrix(1.4036099910736084,0,0,1.4560400247573853,-0.42100000381469727,-0.718999981880188)"><path stroke-linecap="butt" stroke-linejoin="miter" fill-opacity="0" stroke-miterlimit="4" stroke="rgb(214,236,96)" stroke-opacity="1" stroke-width="4" d=" M0,-62.48249816894531 C24.36003875732422,-62.48249816894531 44.13850021362305,-34.48408889770508 44.13850021362305,0 C44.13850021362305,34.48408889770508 24.36003875732422,62.48249816894531 0,62.48249816894531 C-24.36003875732422,62.48249816894531 -44.13850021362305,34.48408889770508 -44.13850021362305,0 C-44.13850021362305,-34.48408889770508 -24.36003875732422,-62.48249816894531 0,-62.48249816894531z"></path></g><path fill="rgb(126,247,208)" fill-opacity="1" d=" M0,-62.48249816894531 C24.36003875732422,-62.48249816894531 44.13850021362305,-34.48408889770508 44.13850021362305,0 C44.13850021362305,34.48408889770508 24.36003875732422,62.48249816894531 0,62.48249816894531 C-24.36003875732422,62.48249816894531 -44.13850021362305,34.48408889770508 -44.13850021362305,0 C-44.13850021362305,-34.48408889770508 -24.36003875732422,-62.48249816894531 0,-62.48249816894531z"></path></g></g><g transform="matrix(-0.0061438786797225475,0,0,1,251.2163543701172,240.04901123046875)" opacity="1" style="display: none;"><g opacity="1" transform="matrix(1,0,0,1,2.878000020980835,2.059999942779541)"><path fill="rgb(120,211,180)" fill-opacity="1" d=" M-7.263999938964844,-104.6709976196289 C-7.263999938964844,-104.6709976196289 -7.186999797821045,72.73100280761719 -7.186999797821045,72.73100280761719 C-7.186999797821045,72.73100280761719 -7.144000053405762,174.3560028076172 -7.144000053405762,174.3560028076172 C-7.144000053405762,174.3560028076172 188.26199340820312,215.3419952392578 188.26199340820312,215.3419952392578 C188.26199340820312,215.3419952392578 188.3179931640625,-77.54000091552734 188.3179931640625,-77.54000091552734 C188.3179931640625,-77.54000091552734 -7.263999938964844,-104.6709976196289 -7.263999938964844,-104.6709976196289z"></path></g><g opacity="1" transform="matrix(0.5742899775505066,0,0,0.42735999822616577,86.4219970703125,-25.152999877929688)"><path fill="rgb(255,250,180)" fill-opacity="1" d=" M0,-45.43550109863281 C18.17682647705078,-45.43550109863281 32.935001373291016,-25.07585334777832 32.935001373291016,0 C32.935001373291016,25.07585334777832 18.17682647705078,45.43550109863281 0,45.43550109863281 C-18.17682647705078,45.43550109863281 -32.935001373291016,25.07585334777832 -32.935001373291016,0 C-32.935001373291016,-25.07585334777832 -18.17682647705078,-45.43550109863281 0,-45.43550109863281z"></path></g><g opacity="1" transform="matrix(0.7220799922943115,0,0,0.7974399924278259,151.49400329589844,-26.9950008392334)"><path fill="rgb(233,149,46)" fill-opacity="1" d=" M0,-19.207000732421875 C9.741034507751465,-19.207000732421875 17.649999618530273,-10.600343704223633 17.649999618530273,0 C17.649999618530273,10.600343704223633 9.741034507751465,19.207000732421875 0,19.207000732421875 C-9.741034507751465,19.207000732421875 -17.649999618530273,10.600343704223633 -17.649999618530273,0 C-17.649999618530273,-10.600343704223633 -9.741034507751465,-19.207000732421875 0,-19.207000732421875z"></path></g><g opacity="1" transform="matrix(0.7156699895858765,0,0,0.7854700088500977,27.832000732421875,-55.80699920654297)"><path fill="rgb(233,149,46)" fill-opacity="1" d=" M0,-21.042999267578125 C10.004843711853027,-21.042999267578125 18.128000259399414,-11.613631248474121 18.128000259399414,0 C18.128000259399414,11.613631248474121 10.004843711853027,21.042999267578125 0,21.042999267578125 C-10.004843711853027,21.042999267578125 -18.128000259399414,11.613631248474121 -18.128000259399414,0 C-18.128000259399414,-11.613631248474121 -10.004843711853027,-21.042999267578125 0,-21.042999267578125z"></path></g><g opacity="1" transform="matrix(1,0,0,1,0,0)"><path fill="rgb(255,227,143)" fill-opacity="1" d=" M189.9320068359375,63.45000076293945 C189.9320068359375,63.45000076293945 160.8780059814453,169.04800415039062 59.060001373291016,148.66600036621094 C5.699999809265137,137.98399353027344 0.20399999618530273,75.69999694824219 0.20399999618530273,75.69999694824219 C0.20399999618530273,75.69999694824219 -0.024000000208616257,173.9510040283203 -0.024000000208616257,173.9510040283203 C-0.024000000208616257,173.9510040283203 188.11399841308594,213.1999969482422 188.11399841308594,213.1999969482422 C188.11399841308594,213.1999969482422 189.9320068359375,63.45000076293945 189.9320068359375,63.45000076293945z"></path></g><g opacity="1" transform="matrix(0.9959176182746887,0.042873185127973557,-0.042534276843070984,0.9880449175834656,-4.0920000076293945,2.3420000076293945)"><path fill="rgb(255,199,105)" fill-opacity="1" d=" M71.302001953125,20.457000732421875 C71.302001953125,20.457000732421875 59.422000885009766,19.511999130249023 59.422000885009766,19.511999130249023 C59.422000885009766,19.511999130249023 59.994998931884766,39.20800018310547 59.994998931884766,39.20800018310547 C59.994998931884766,39.20800018310547 47.17599868774414,37.88199996948242 47.17599868774414,37.88199996948242 C47.17599868774414,37.88199996948242 47.183998107910156,18.67300033569336 47.183998107910156,18.67300033569336 C47.183998107910156,18.67300033569336 37.70800018310547,17.69700050354004 37.70800018310547,17.69700050354004 C37.70800018310547,17.69700050354004 38.65800094604492,61.676998138427734 38.65800094604492,61.676998138427734 C38.65800094604492,61.676998138427734 48.709999084472656,62.926998138427734 48.709999084472656,62.926998138427734 C48.709999084472656,62.926998138427734 47.875999450683594,46.20800018310547 47.875999450683594,46.20800018310547 C47.875999450683594,46.20800018310547 60.327999114990234,47.005001068115234 60.327999114990234,47.005001068115234 C60.327999114990234,47.005001068115234 61.25,64.71800231933594 61.25,64.71800231933594 C61.25,64.71800231933594 73.16400146484375,66.4520034790039 73.16400146484375,66.4520034790039 C73.16400146484375,66.4520034790039 71.302001953125,20.457000732421875 71.302001953125,20.457000732421875z"></path></g><g opacity="1" transform="matrix(1,0,0,1,-3.928999900817871,8.994000434875488)"><path fill="rgb(255,199,105)" fill-opacity="1" d=" M83.59300231933594,18.950000762939453 C83.59300231933594,18.950000762939453 82.38099670410156,64.44999694824219 82.38099670410156,64.44999694824219 C82.38099670410156,64.44999694824219 107.51799774169922,71.95600128173828 108.73899841308594,59.20000076293945 C109.97899627685547,46.244998931884766 97.52899932861328,42.95000076293945 97.52899932861328,42.95000076293945 C97.52899932861328,42.95000076293945 109.03299713134766,45.95600128173828 109.34500122070312,31.450000762939453 C109.58200073242188,20.43600082397461 83.59300231933594,18.950000762939453 83.59300231933594,18.950000762939453z"></path></g><g opacity="1" transform="matrix(1,0,0,1,-2.674999952316284,14.517999649047852)"><path fill="rgb(255,199,105)" fill-opacity="1" d=" M120.55400085449219,18.450000762939453 C120.55400085449219,18.450000762939453 120.55400085449219,65.19999694824219 120.55400085449219,65.19999694824219 C120.55400085449219,65.19999694824219 145.39700317382812,63.45899963378906 145.39700317382812,42.95000076293945 C145.39700317382812,25.950000762939453 120.55400085449219,18.450000762939453 120.55400085449219,18.450000762939453z"></path></g></g><g transform="matrix(-0.8358399868011475,0,0,1,248.42210388183594,240.04901123046875)" opacity="1" style="display: block;"><g opacity="1" transform="matrix(1,0,0,1,2.506999969482422,1.222000002861023)"><path fill="rgb(114,222,185)" fill-opacity="1" d=" M-7.263999938964844,-104.6709976196289 C-7.263999938964844,-104.6709976196289 -7.186999797821045,72.73100280761719 -7.186999797821045,72.73100280761719 C-7.186999797821045,72.73100280761719 -7.144000053405762,174.3560028076172 -7.144000053405762,174.3560028076172 C-7.144000053405762,174.3560028076172 188.26199340820312,215.3419952392578 188.26199340820312,215.3419952392578 C188.26199340820312,215.3419952392578 188.3179931640625,-77.54000091552734 188.3179931640625,-77.54000091552734 C188.3179931640625,-77.54000091552734 -7.263999938964844,-104.6709976196289 -7.263999938964844,-104.6709976196289z"></path></g></g><g transform="matrix(1,0,0,1,250.7239990234375,431)" opacity="0.47000000000000003" style="display: block;"><g opacity="1" transform="matrix(1,0,0,1,0,0)"><path fill="rgb(109,103,103)" fill-opacity="1" d=" M0,-41.5 C47.86656188964844,-41.5 86.73049926757812,-22.903850555419922 86.73049926757812,0 C86.73049926757812,22.903850555419922 47.86656188964844,41.5 0,41.5 C-47.86656188964844,41.5 -86.73049926757812,22.903850555419922 -86.73049926757812,0 C-86.73049926757812,-22.903850555419922 -47.86656188964844,-41.5 0,-41.5z"></path></g></g><g transform="matrix(-0.5696334838867188,0.8218988180160522,-0.8218988180160522,-0.5696334838867188,90.56500244140625,61.18299865722656)" opacity="1" style="display: block;"><g opacity="1" transform="matrix(1,0,0,1,0,0)"><path fill="rgb(255,191,103)" fill-opacity="1" d=" M2.2320001125335693,-26.482999801635742 C2.2320001125335693,-26.482999801635742 7.921999931335449,-10.442999839782715 7.921999931335449,-10.442999839782715 C8.17199993133545,-9.753000259399414 8.652000427246094,-9.213000297546387 9.26200008392334,-8.932999610900879 C9.26200008392334,-8.932999610900879 23.50200080871582,-2.513000011444092 23.50200080871582,-2.513000011444092 C25.511999130249023,-1.6030000448226929 25.511999130249023,1.6069999933242798 23.50200080871582,2.5169999599456787 C23.50200080871582,2.5169999599456787 9.26200008392334,8.937000274658203 9.26200008392334,8.937000274658203 C8.652000427246094,9.206999778747559 8.17199993133545,9.756999969482422 7.921999931335449,10.437000274658203 C7.921999931335449,10.437000274658203 2.2320001125335693,26.48699951171875 2.2320001125335693,26.48699951171875 C1.4220000505447388,28.746999740600586 -1.4279999732971191,28.746999740600586 -2.2279999256134033,26.48699951171875 C-2.2279999256134033,26.48699951171875 -7.927999973297119,10.437000274658203 -7.927999973297119,10.437000274658203 C-8.168000221252441,9.756999969482422 -8.657999992370605,9.206999778747559 -9.267999649047852,8.937000274658203 C-9.267999649047852,8.937000274658203 -23.49799919128418,2.506999969482422 -23.49799919128418,2.506999969482422 C-25.507999420166016,1.6069999933242798 -25.507999420166016,-1.6030000448226929 -23.49799919128418,-2.513000011444092 C-23.49799919128418,-2.513000011444092 -9.267999649047852,-8.932999610900879 -9.267999649047852,-8.932999610900879 C-8.657999992370605,-9.213000297546387 -8.168000221252441,-9.753000259399414 -7.927999973297119,-10.442999839782715 C-7.927999973297119,-10.442999839782715 -2.2279999256134033,-26.482999801635742 -2.2279999256134033,-26.482999801635742 C-1.4279999732971191,-28.753000259399414 1.4220000505447388,-28.753000259399414 2.2320001125335693,-26.482999801635742z"></path></g></g><g transform="matrix(1,0,0,1,469.5299987792969,92.36100006103516)" opacity="1" style="display: block;"><g opacity="1" transform="matrix(1,0,0,1,0,0)"><path fill="rgb(255,245,176)" fill-opacity="1" d=" M1.8200000524520874,-21.277000427246094 C1.8200000524520874,-21.277000427246094 6.489999771118164,-8.38700008392334 6.489999771118164,-8.38700008392334 C6.690000057220459,-7.836999893188477 7.079999923706055,-7.396999835968018 7.579999923706055,-7.177000045776367 C7.579999923706055,-7.177000045776367 19.229999542236328,-2.0169999599456787 19.229999542236328,-2.0169999599456787 C20.8799991607666,-1.2869999408721924 20.8799991607666,1.2929999828338623 19.229999542236328,2.0230000019073486 C19.229999542236328,2.0230000019073486 7.579999923706055,7.183000087738037 7.579999923706055,7.183000087738037 C7.079999923706055,7.4029998779296875 6.690000057220459,7.8429999351501465 6.489999771118164,8.392999649047852 C6.489999771118164,8.392999649047852 1.8200000524520874,21.283000946044922 1.8200000524520874,21.283000946044922 C1.159999966621399,23.10300064086914 -1.1699999570846558,23.10300064086914 -1.8200000524520874,21.283000946044922 C-1.8200000524520874,21.283000946044922 -6.489999771118164,8.392999649047852 -6.489999771118164,8.392999649047852 C-6.690000057220459,7.833000183105469 -7.079999923706055,7.4029998779296875 -7.579999923706055,7.183000087738037 C-7.579999923706055,7.183000087738037 -19.239999771118164,2.0230000019073486 -19.239999771118164,2.0230000019073486 C-20.8799991607666,1.2929999828338623 -20.8799991607666,-1.2869999408721924 -19.239999771118164,-2.0169999599456787 C-19.239999771118164,-2.0169999599456787 -7.579999923706055,-7.177000045776367 -7.579999923706055,-7.177000045776367 C-7.079999923706055,-7.396999835968018 -6.690000057220459,-7.836999893188477 -6.489999771118164,-8.38700008392334 C-6.489999771118164,-8.38700008392334 -1.8200000524520874,-21.277000427246094 -1.8200000524520874,-21.277000427246094 C-1.1699999570846558,-23.10700035095215 1.159999966621399,-23.10700035095215 1.8200000524520874,-21.277000427246094 C1.8200000524520874,-21.277000427246094 1.8200000524520874,-21.277000427246094 1.8200000524520874,-21.277000427246094z"></path></g></g><g transform="matrix(0.9353262186050415,0,0,0.9353262186050415,429.3529968261719,54.64500045776367)" opacity="1" style="display: block;"><g opacity="1" transform="matrix(1,0,0,1,0,0)"><path fill="rgb(255,255,255)" fill-opacity="1" d=" M13.298999786376953,2.818000078201294 C14.848999977111816,-4.541999816894531 10.159000396728516,-11.76200008392334 2.819000005722046,-13.321999549865723 C-4.531000137329102,-14.881999969482422 -11.741000175476074,-10.182000160217285 -13.291000366210938,-2.822000026702881 C-14.85099983215332,4.538000106811523 -10.151000022888184,11.767999649047852 -2.811000108718872,13.32800006866455 C4.5289998054504395,14.878000259399414 11.73900032043457,10.178000450134277 13.298999786376953,2.818000078201294z"></path></g></g><g transform="matrix(1,0,0,1,43.06800079345703,145.09921264648438)" opacity="1" style="display: block;"><g opacity="1" transform="matrix(1,0,0,1,0,0)"><path fill="rgb(255,255,255)" fill-opacity="1" d=" M5.3460001945495605,0.004000000189989805 C5.3460001945495605,2.9539999961853027 2.9560000896453857,5.354000091552734 -0.004000000189989805,5.354000091552734 C-2.9539999961853027,5.354000091552734 -5.343999862670898,2.9539999961853027 -5.343999862670898,0.004000000189989805 C-5.343999862670898,-2.9560000896453857 -2.9539999961853027,-5.355999946594238 -0.004000000189989805,-5.355999946594238 C2.9560000896453857,-5.355999946594238 5.3460001945495605,-2.9560000896453857 5.3460001945495605,0.004000000189989805z"></path></g></g><g transform="matrix(1,0,0,1,251,392.8399963378906)" opacity="1" style="display: block;"><g opacity="1" transform="matrix(1,0,0,1,0,0)"><path fill="rgb(88,23,18)" fill-opacity="1" d=" M82.89600372314453,-71.10199737548828 C82.89600372314453,-71.10199737548828 82.89600372314453,25.49799919128418 82.89600372314453,25.49799919128418 C82.89600372314453,25.49799919128418 82.8759994506836,25.49799919128418 82.8759994506836,25.49799919128418 C82.85600280761719,39.347999572753906 71.44599914550781,52.99800109863281 49.816001892089844,61.95800018310547 C13.236000061035156,77.0780029296875 -38.7239990234375,73.02799987792969 -66.25399780273438,52.917999267578125 C-77.49400329589844,44.698001861572266 -82.91400146484375,35.06800079345703 -82.89399719238281,25.49799919128418 C-82.89399719238281,25.49799919128418 -82.89399719238281,-71.10199737548828 -82.89399719238281,-71.10199737548828 C-82.89399719238281,-71.10199737548828 82.89600372314453,-71.10199737548828 82.89600372314453,-71.10199737548828"></path></g></g><g transform="matrix(1,0,0,1,251.00399780273438,420.28399658203125)" opacity="1" style="display: block;"><g opacity="1" transform="matrix(1,0,0,1,0,0)"><path fill="rgb(128,35,14)" fill-opacity="1" d=" M49.81999969482422,8.642000198364258 C13.239999771118164,23.781999588012695 -38.72999954223633,19.742000579833984 -66.25,-0.3880000114440918 C-77.48999786376953,-8.607999801635742 -82.9000015258789,-18.24799919128418 -82.88999938964844,-27.79800033569336 C-82.88999938964844,-27.79800033569336 -82.88999938964844,-17.808000564575195 -82.88999938964844,-17.808000564575195 C-82.9000015258789,-8.248000144958496 -77.48999786376953,1.3819999694824219 -66.25,9.60200023651123 C-38.72999954223633,29.73200035095215 13.239999771118164,33.77199935913086 49.81999969482422,18.642000198364258 C71.45999908447266,9.682000160217285 82.87000274658203,-3.9779999256134033 82.87999725341797,-17.808000564575195 C82.87999725341797,-17.808000564575195 82.88999938964844,-27.79800033569336 82.88999938964844,-27.79800033569336 C82.87000274658203,-13.968000411987305 71.45999908447266,-0.30799999833106995 49.81999969482422,8.642000198364258"></path></g></g><g transform="matrix(1,0,0,1,251.16200256347656,395.6610107421875)" opacity="1" style="display: block;"><g opacity="1" transform="matrix(1,0,0,1,0,0)"><path fill="rgb(128,35,14)" fill-opacity="1" d=" M49.819000244140625,8.640999794006348 C13.23900032043457,23.7810001373291 -38.73099899291992,19.740999221801758 -66.2509994506836,-0.3889999985694885 C-77.49099731445312,-8.609000205993652 -82.9010009765625,-18.249000549316406 -82.89099884033203,-27.798999786376953 C-82.89099884033203,-27.798999786376953 -82.89099884033203,-17.80900001525879 -82.89099884033203,-17.80900001525879 C-82.9010009765625,-8.24899959564209 -77.49099731445312,1.38100004196167 -66.2509994506836,9.611000061035156 C-38.73099899291992,29.731000900268555 13.23900032043457,33.78099822998047 49.819000244140625,18.641000747680664 C71.45899963378906,9.680999755859375 82.86900329589844,-3.9690001010894775 82.88899993896484,-17.798999786376953 C82.88899993896484,-17.798999786376953 82.88899993896484,-27.798999786376953 82.88899993896484,-27.798999786376953 C82.86900329589844,-13.968999862670898 71.45899963378906,-0.3089999854564667 49.819000244140625,8.640999794006348"></path></g></g><g transform="matrix(1,0,0,1,251.16200256347656,371.0379943847656)" opacity="1" style="display: block;"><g opacity="1" transform="matrix(1,0,0,1,0,0)"><path fill="rgb(128,35,14)" fill-opacity="1" d=" M49.819000244140625,8.640999794006348 C13.23900032043457,23.7810001373291 -38.73099899291992,19.740999221801758 -66.2509994506836,-0.3889999985694885 C-77.49099731445312,-8.609000205993652 -82.9010009765625,-18.249000549316406 -82.89099884033203,-27.798999786376953 C-82.89099884033203,-27.798999786376953 -82.89099884033203,-17.80900001525879 -82.89099884033203,-17.80900001525879 C-82.9010009765625,-8.24899959564209 -77.49099731445312,1.38100004196167 -66.2509994506836,9.60099983215332 C-38.73099899291992,29.731000900268555 13.23900032043457,33.770999908447266 49.819000244140625,18.641000747680664 C71.45899963378906,9.680999755859375 82.86900329589844,-3.9790000915527344 82.88899993896484,-17.80900001525879 C82.88899993896484,-17.80900001525879 82.88899993896484,-27.798999786376953 82.88899993896484,-27.798999786376953 C82.86900329589844,-13.968999862670898 71.45899963378906,-0.3089999854564667 49.819000244140625,8.640999794006348"></path></g></g><g transform="matrix(1,0,0,1,251.0749969482422,350.8280029296875)" opacity="1" style="display: block;"><g opacity="1" transform="matrix(1,0,0,1,0,0)"><path fill="rgb(255,145,43)" fill-opacity="1" d=" M-86,-29.763999938964844 C-85.97000122070312,-39.64400100708008 -80.33999633789062,-49.59400177001953 -68.72000122070312,-58.08399963378906 C-40.18000030517578,-78.9739990234375 13.739999771118164,-83.16400146484375 51.689998626708984,-67.46399688720703 C74.87999725341797,-57.86399841308594 86.7300033569336,-43.05400085449219 85.94000244140625,-28.224000930786133 C85.97000122070312,-28.003999710083008 86,-27.77400016784668 86,-27.54400062561035 C86,-27.54400062561035 86,28.45599937438965 86,28.45599937438965 C86,30.785999298095703 84.31999969482422,32.67599868774414 82.25,32.67599868774414 C80.18000030517578,32.67599868774414 78.5,30.785999298095703 78.5,28.45599937438965 C78.5,28.45599937438965 78.5,16.086000442504883 78.5,16.086000442504883 C78.5,13.755999565124512 76.81999969482422,11.866000175476074 74.75,11.866000175476074 C72.66999816894531,11.866000175476074 70.98999786376953,13.755999565124512 70.98999786376953,16.086000442504883 C70.98999786376953,16.086000442504883 70.98999786376953,55.2760009765625 70.98999786376953,55.2760009765625 C70.98999786376953,57.60599899291992 69.30999755859375,59.49599838256836 67.23999786376953,59.49599838256836 C65.16999816894531,59.49599838256836 63.4900016784668,57.60599899291992 63.4900016784668,55.2760009765625 C63.4900016784668,55.2760009765625 63.4900016784668,42.61600112915039 63.4900016784668,42.61600112915039 C63.4900016784668,40.2859992980957 61.810001373291016,38.395999908447266 59.7400016784668,38.395999908447266 C57.66999816894531,38.395999908447266 55.9900016784668,40.2859992980957 55.9900016784668,42.61600112915039 C55.9900016784668,42.61600112915039 55.9900016784668,45.60599899291992 55.9900016784668,45.60599899291992 C55.9900016784668,47.92599868774414 54.310001373291016,49.82600021362305 52.2400016784668,49.82600021362305 C50.15999984741211,49.82600021362305 48.4900016784668,47.92599868774414 48.4900016784668,45.60599899291992 C48.4900016784668,45.60599899291992 48.4900016784668,18.615999221801758 48.4900016784668,18.615999221801758 C48.4900016784668,16.285999298095703 46.79999923706055,14.395999908447266 44.72999954223633,14.395999908447266 C42.65999984741211,14.395999908447266 40.97999954223633,16.285999298095703 40.97999954223633,18.615999221801758 C40.97999954223633,18.615999221801758 40.97999954223633,72.74600219726562 40.97999954223633,72.74600219726562 C40.97999954223633,75.07599639892578 39.29999923706055,76.96600341796875 37.22999954223633,76.96600341796875 C35.15999984741211,76.96600341796875 33.47999954223633,75.07599639892578 33.47999954223633,72.74600219726562 C33.47999954223633,72.74600219726562 33.47999954223633,29.865999221801758 33.47999954223633,29.865999221801758 C33.47999954223633,27.535999298095703 31.799999237060547,25.645999908447266 29.729999542236328,25.645999908447266 C27.649999618530273,25.645999908447266 25.979999542236328,27.535999298095703 25.979999542236328,29.865999221801758 C25.979999542236328,29.865999221801758 25.979999542236328,41.19599914550781 25.979999542236328,41.19599914550781 C25.979999542236328,43.5260009765625 24.290000915527344,45.41600036621094 22.219999313354492,45.41600036621094 C20.149999618530273,45.41600036621094 18.469999313354492,43.5260009765625 18.469999313354492,41.19599914550781 C18.469999313354492,41.19599914550781 18.469999313354492,26.29599952697754 18.469999313354492,26.29599952697754 C18.469999313354492,21.086000442504883 14.5600004196167,17.006000518798828 9.9399995803833,17.305999755859375 C3.819999933242798,17.695999145507812 -2.369999885559082,17.715999603271484 -8.520000457763672,17.375999450683594 C-12.9399995803833,17.125999450683594 -16.65999984741211,21.04599952697754 -16.65999984741211,26.035999298095703 C-16.65999984741211,26.035999298095703 -16.65999984741211,34.01599884033203 -16.65999984741211,34.01599884033203 C-16.65999984741211,36.25600051879883 -18.270000457763672,38.07600021362305 -20.270000457763672,38.07600021362305 C-22.260000228881836,38.07600021362305 -23.8799991607666,36.25600051879883 -23.8799991607666,34.01599884033203 C-23.8799991607666,34.01599884033203 -23.8799991607666,23.106000900268555 -23.8799991607666,23.106000900268555 C-23.8799991607666,18.9060001373291 -26.559999465942383,15.326000213623047 -30.229999542236328,14.576000213623047 C-33.040000915527344,13.996000289916992 -35.81999969482422,13.336000442504883 -38.540000915527344,12.586000442504883 C-43.599998474121094,11.185999870300293 -48.47999954223633,15.47599983215332 -48.47999954223633,21.336000442504883 C-48.47999954223633,21.336000442504883 -48.47999954223633,28.84600067138672 -48.47999954223633,28.84600067138672 C-48.47999954223633,31.176000595092773 -50.15999984741211,33.066001892089844 -52.22999954223633,33.066001892089844 C-54.310001373291016,33.066001892089844 -55.9900016784668,31.176000595092773 -55.9900016784668,28.84600067138672 C-55.9900016784668,28.84600067138672 -55.9900016784668,22.395999908447266 -55.9900016784668,22.395999908447266 C-55.9900016784668,20.06599998474121 -57.66999816894531,18.176000595092773 -59.7400016784668,18.176000595092773 C-61.810001373291016,18.176000595092773 -63.4900016784668,20.06599998474121 -63.4900016784668,22.395999908447266 C-63.4900016784668,22.395999908447266 -63.4900016784668,57.29600143432617 -63.4900016784668,57.29600143432617 C-63.4900016784668,59.625999450683594 -65.16999816894531,61.51599884033203 -67.23999786376953,61.51599884033203 C-69.30999755859375,61.51599884033203 -70.98999786376953,59.625999450683594 -70.98999786376953,57.29600143432617 C-70.98999786376953,57.29600143432617 -70.98999786376953,7.185999870300293 -70.98999786376953,7.185999870300293 C-70.98999786376953,4.855999946594238 -72.66999816894531,2.9660000801086426 -74.73999786376953,2.9660000801086426 C-76.81999969482422,2.9660000801086426 -78.5,4.855999946594238 -78.5,7.185999870300293 C-78.5,7.185999870300293 -78.5,29.31599998474121 -78.5,29.31599998474121 C-78.5,31.645999908447266 -80.18000030517578,33.5359992980957 -82.25,33.5359992980957 C-84.31999969482422,33.5359992980957 -86,31.645999908447266 -86,29.31599998474121 C-86,29.31599998474121 -86,-29.743999481201172 -86,-29.743999481201172 C-86,-29.743999481201172 -86,-29.763999938964844 -86,-29.763999938964844"></path></g><g opacity="1" transform="matrix(1,0,0,1,0,0)"><path stroke-linecap="round" stroke-linejoin="miter" fill-opacity="0" stroke-miterlimit="4" stroke="rgb(88,23,18)" stroke-opacity="1" stroke-width="4" d=" M-62.07500076293945,-42.827999114990234 C-62.07500076293945,-42.827999114990234 -57.07500076293945,-34.327999114990234 -57.07500076293945,-34.327999114990234"></path></g><g opacity="1" transform="matrix(1,0,0,1,0,0)"><path stroke-linecap="round" stroke-linejoin="miter" fill-opacity="0" stroke-miterlimit="4" stroke="rgb(88,23,18)" stroke-opacity="1" stroke-width="4" d=" M-43.07500076293945,-59.327999114990234 C-43.07500076293945,-59.327999114990234 -47.57500076293945,-53.327999114990234 -47.57500076293945,-53.327999114990234"></path></g><g opacity="1" transform="matrix(1,0,0,1,0,0)"><path fill="rgb(255,145,43)" fill-opacity="1" d=" M19.424999237060547,-59.327999114990234 C19.424999237060547,-59.327999114990234 28.424999237060547,-52.327999114990234 28.424999237060547,-52.327999114990234"></path><path stroke-linecap="round" stroke-linejoin="miter" fill-opacity="0" stroke-miterlimit="4" stroke="rgb(88,23,18)" stroke-opacity="1" stroke-width="4" d=" M19.424999237060547,-59.327999114990234 C19.424999237060547,-59.327999114990234 28.424999237060547,-52.327999114990234 28.424999237060547,-52.327999114990234"></path></g><g opacity="1" transform="matrix(1,0,0,1,0,0)"><path fill="rgb(255,145,43)" fill-opacity="1" d=" M49.42499923706055,-31.827999114990234 C49.42499923706055,-31.827999114990234 31.924999237060547,-24.827999114990234 31.924999237060547,-24.827999114990234"></path><path stroke-linecap="round" stroke-linejoin="miter" fill-opacity="0" stroke-miterlimit="4" stroke="rgb(88,23,18)" stroke-opacity="1" stroke-width="4" d=" M49.42499923706055,-31.827999114990234 C49.42499923706055,-31.827999114990234 31.924999237060547,-24.827999114990234 31.924999237060547,-24.827999114990234"></path></g><g opacity="1" transform="matrix(1,0,0,1,0,0)"><path fill="rgb(255,145,43)" fill-opacity="1" d=" M-16.575000762939453,-22.827999114990234 C-16.575000762939453,-22.827999114990234 -40.07500076293945,-18.327999114990234 -40.07500076293945,-18.327999114990234"></path><path stroke-linecap="round" stroke-linejoin="miter" fill-opacity="0" stroke-miterlimit="4" stroke="rgb(88,23,18)" stroke-opacity="1" stroke-width="4" d=" M-16.575000762939453,-22.827999114990234 C-16.575000762939453,-22.827999114990234 -40.07500076293945,-18.327999114990234 -40.07500076293945,-18.327999114990234"></path></g><g opacity="1" transform="matrix(1,0,0,1,0,0)"><path fill="rgb(255,145,43)" fill-opacity="1" d=" M58.42499923706055,-53.827999114990234 C58.42499923706055,-53.827999114990234 52.92499923706055,-45.327999114990234 52.92499923706055,-45.327999114990234"></path><path stroke-linecap="round" stroke-linejoin="miter" fill-opacity="0" stroke-miterlimit="4" stroke="rgb(88,23,18)" stroke-opacity="1" stroke-width="4" d=" M58.42499923706055,-53.827999114990234 C58.42499923706055,-53.827999114990234 52.92499923706055,-45.327999114990234 52.92499923706055,-45.327999114990234"></path></g><g opacity="1" transform="matrix(1,0,0,1,0,0)"><path fill="rgb(255,145,43)" fill-opacity="1" d=" M-22.075000762939453,-61.827999114990234 C-22.075000762939453,-61.827999114990234 -6.074999809265137,-57.827999114990234 -6.074999809265137,-57.827999114990234"></path><path stroke-linecap="round" stroke-linejoin="miter" fill-opacity="0" stroke-miterlimit="4" stroke="rgb(88,23,18)" stroke-opacity="1" stroke-width="4" d=" M-22.075000762939453,-61.827999114990234 C-22.075000762939453,-61.827999114990234 -6.074999809265137,-57.827999114990234 -6.074999809265137,-57.827999114990234"></path></g></g><g transform="matrix(1,0,0,1,251.0760040283203,338.0790100097656)" opacity="1" style="display: block;"><g opacity="1" transform="matrix(1,0,0,1,0,0)"><path fill="rgb(255,208,89)" fill-opacity="1" d=" M48.12200164794922,8.185999870300293 C12.791999816894531,22.81599998474121 -37.40800094604492,18.916000366210938 -63.99800109863281,-0.5339999794960022 C-73.5479965209961,-7.52400016784668 -78.71800231933594,-15.564000129699707 -79.8280029296875,-23.68400001525879 C-81.25800323486328,-13.383999824523926 -76.16799926757812,-2.7639999389648438 -63.99800109863281,6.136000156402588 C-37.40800094604492,25.586000442504883 12.791999816894531,29.496000289916992 48.12200164794922,14.855999946594238 C70.79199981689453,5.486000061035156 81.8219985961914,-9.234000205993652 79.83200073242188,-23.714000701904297 C78.1520004272461,-11.513999938964844 67.31199645996094,0.25600001215934753 48.12200164794922,8.185999870300293"></path></g><g opacity="1" transform="matrix(1,0,0,1,0,0)"><path fill="rgb(255,208,89)" fill-opacity="1" d=" M-9.076000213623047,4.921000003814697 C-9.076000213623047,4.921000003814697 6.923999786376953,8.420999526977539 6.923999786376953,8.420999526977539"></path><path stroke-linecap="round" stroke-linejoin="miter" fill-opacity="0" stroke-miterlimit="4" stroke="rgb(88,23,18)" stroke-opacity="1" stroke-width="4" d=" M-9.076000213623047,4.921000003814697 C-9.076000213623047,4.921000003814697 6.923999786376953,8.420999526977539 6.923999786376953,8.420999526977539"></path></g></g><g transform="matrix(1,0,0,1,251,437.6659851074219)" opacity="1" style="display: block;"><g opacity="1" transform="matrix(1,0,0,1,0,0)"><path fill="rgb(255,196,120)" fill-opacity="1" d=" M82.89600372314453,-27.86400032043457 C82.89600372314453,-27.86400032043457 82.89600372314453,-17.743999481201172 82.89600372314453,-17.743999481201172 C82.89600372314453,-17.743999481201172 82.8759994506836,-17.743999481201172 82.8759994506836,-17.743999481201172 C82.85600280761719,-3.8940000534057617 71.44599914550781,9.765999794006348 49.816001892089844,18.715999603271484 C13.236000061035156,33.83599853515625 -38.7239990234375,29.79599952697754 -66.25399780273438,9.675999641418457 C-77.49400329589844,1.465999960899353 -82.91400146484375,-8.173999786376953 -82.89399719238281,-17.743999481201172 C-82.89399719238281,-17.743999481201172 -82.89399719238281,-27.86400032043457 -82.89399719238281,-27.86400032043457 C-82.89399719238281,-27.86400032043457 -82.78399658203125,-27.86400032043457 -82.78399658203125,-27.86400032043457 C-77.58399963378906,-27.8439998626709 -73.38400268554688,-23.083999633789062 -73.40399932861328,-17.233999252319336 C-73.40399932861328,-17.04400062561035 -73.38400268554688,-16.874000549316406 -73.38400268554688,-16.68400001525879 C-73.25399780273438,-13.534000396728516 -74.40399932861328,-10.673999786376953 -76.26399993896484,-8.633999824523926 C-73.42400360107422,-8.994000434875488 -70.46399688720703,-7.943999767303467 -68.36399841308594,-5.414000034332275 C-68.05400085449219,-5.064000129699707 -67.73400115966797,-4.703999996185303 -67.40399932861328,-4.343999862670898 C-64.7239990234375,-1.434000015258789 -63.90399932861328,2.815999984741211 -64.9739990234375,6.546000003814697 C-62.183998107910156,3.9760000705718994 -58.2140007019043,3.3459999561309814 -54.784000396728516,5.25600004196167 C-54.31399917602539,5.526000022888184 -53.82400131225586,5.785999774932861 -53.33399963378906,6.035999774932861 C-49.7239990234375,7.966000080108643 -47.683998107910156,12.156000137329102 -47.9739990234375,16.38599967956543 C-45.75400161743164,12.895999908447266 -41.75400161743164,11.13599967956543 -37.84400177001953,12.345999717712402 C-37.31399917602539,12.515999794006348 -36.763999938964844,12.666000366210938 -36.2239990234375,12.836000442504883 C-32.25400161743164,13.97599983215332 -29.52400016784668,17.805999755859375 -29.18400001525879,22.166000366210938 C-27.464000701904297,18.236000061035156 -23.68400001525879,15.795999526977539 -19.583999633789062,16.365999221801758 C-19.583999633789062,16.365999221801758 -17.86400032043457,16.606000900268555 -17.86400032043457,16.606000900268555 C-13.763999938964844,17.125999450683594 -10.583999633789062,20.555999755859375 -9.753999710083008,24.856000900268555 C-8.494000434875488,20.70599937438965 -4.973999977111816,17.746000289916992 -0.8640000224113464,17.746000289916992 C-0.8640000224113464,17.746000289916992 0.8859999775886536,17.746000289916992 0.8859999775886536,17.746000289916992 C4.986000061035156,17.746000289916992 8.565999984741211,20.70599937438965 9.845999717712402,24.875999450683594 C10.696000099182129,20.586000442504883 13.87600040435791,17.1560001373291 17.965999603271484,16.625999450683594 C18.525999069213867,16.535999298095703 19.086000442504883,16.47599983215332 19.6560001373291,16.38599967956543 C23.736000061035156,15.795999526977539 27.56599998474121,18.256000518798828 29.29599952697754,22.166000366210938 C29.63599967956543,17.836000442504883 32.34600067138672,13.996000289916992 36.316001892089844,12.855999946594238 C36.316001892089844,12.855999946594238 37.97600173950195,12.345999717712402 37.97600173950195,12.345999717712402 C41.86600112915039,11.166000366210938 45.84600067138672,12.916000366210938 48.066001892089844,16.38599967956543 C47.79600143432617,12.156000137329102 49.85599899291992,7.966000080108643 53.465999603271484,6.056000232696533 C53.97600173950195,5.785999774932861 54.465999603271484,5.526000022888184 54.93600082397461,5.25600004196167 C58.36600112915039,3.365999937057495 62.316001892089844,4.026000022888184 65.08599853515625,6.565999984741211 C64.01599884033203,2.8559999465942383 64.83599853515625,-1.3739999532699585 67.49600219726562,-4.27400016784668 C67.49600219726562,-4.27400016784668 68.47599792480469,-5.374000072479248 68.47599792480469,-5.374000072479248 C70.59600067138672,-7.943999767303467 73.59600067138672,-8.973999977111816 76.45600128173828,-8.593999862670898 C74.57599639892578,-10.62399959564209 73.40599822998047,-13.534000396728516 73.53600311279297,-16.70400047302246 C73.53600311279297,-16.913999557495117 73.55599975585938,-17.134000778198242 73.55599975585938,-17.323999404907227 C73.57599639892578,-23.143999099731445 77.75599670410156,-27.823999404907227 82.89600372314453,-27.86400032043457"></path></g></g><g transform="matrix(1,0,0,1,255,246)" opacity="1" style="display: block;"><g opacity="1" transform="matrix(1,0,0,1,0,0)"><path stroke-linecap="round" stroke-linejoin="miter" fill-opacity="0" stroke-miterlimit="4" stroke="rgb(255,145,43)" stroke-opacity="1" stroke-width="7" d=" M-24.364999771118164,195.95599365234375 C-24.441999435424805,207.49400329589844 -24.5,216.25 -24.5,216.25 M-24,141 C-24,141 -24.009000778198242,142.38699340820312 -24.024999618530273,144.78399658203125"></path></g></g><g transform="matrix(1,0,0,1,248.47900390625,311.3500061035156)" opacity="1" style="display: block;"><g opacity="1" transform="matrix(1,0,0,1,0,0)"><path fill="rgb(236,119,21)" fill-opacity="1" d=" M-5.0929999351501465,-3.0429999828338623 C-1.3530000448226929,-4.313000202178955 3.9570000171661377,-3.9730000495910645 6.767000198364258,-2.2929999828338623 C9.586999893188477,-0.6129999756813049 8.836999893188477,1.7769999504089355 5.0970001220703125,3.046999931335449 C1.3569999933242798,4.307000160217285 -3.9630000591278076,3.9769999980926514 -6.7729997634887695,2.2869999408721924 C-9.583000183105469,0.6069999933242798 -8.833000183105469,-1.7829999923706055 -5.0929999351501465,-3.0429999828338623"></path></g></g><g transform="matrix(1,0,0,1,248.83599853515625,285.02301025390625)" opacity="0.8200000000000001" style="display: block;"><g opacity="1" transform="matrix(1,0,0,1,0,0)"><path fill="rgb(255,245,116)" fill-opacity="1" d=" M-6.843999862670898,-27.124000549316406 C-6.843999862670898,-27.124000549316406 -6.843999862670898,25.445999145507812 -6.843999862670898,25.445999145507812 C-6.843999862670898,25.445999145507812 -6.803999900817871,25.445999145507812 -6.803999900817871,25.445999145507812 C-6.803999900817871,25.79599952697754 -6.374000072479248,26.1560001373291 -5.443999767303467,26.45599937438965 C-3.184000015258789,27.195999145507812 1.1059999465942383,27.34600067138672 4.125999927520752,26.785999298095703 C5.906000137329102,26.45599937438965 6.826000213623047,25.95599937438965 6.826000213623047,25.445999145507812 C6.826000213623047,25.445999145507812 6.8460001945495605,-27.124000549316406 6.8460001945495605,-27.124000549316406 C6.8460001945495605,-27.124000549316406 -6.843999862670898,-27.124000549316406 -6.843999862670898,-27.124000549316406"></path></g><g opacity="1" transform="matrix(1.278939962387085,0,0,1.4449399709701538,-0.9150000214576721,-27.086000442504883)"><path fill="rgb(176,143,37)" fill-opacity="1" d=" M1,-1.9140000343322754 C4.267523765563965,-1.9140000343322754 6.920499801635742,-1.0563366413116455 6.920499801635742,0 C6.920499801635742,1.0563366413116455 4.267523765563965,1.9140000343322754 1,1.9140000343322754 C-2.267523765563965,1.9140000343322754 -4.920499801635742,1.0563366413116455 -4.920499801635742,0 C-4.920499801635742,-1.0563366413116455 -2.267523765563965,-1.9140000343322754 1,-1.9140000343322754z"></path></g><g opacity="1" transform="matrix(0.9898599982261658,0,0,0.9973700046539307,0,0)"><path stroke-linecap="butt" stroke-linejoin="miter" fill-opacity="0" stroke-miterlimit="4" stroke="rgb(12,7,1)" stroke-opacity="1" stroke-width="2" d=" M-0.08699999749660492,-41.26300048828125 C-0.08699999749660492,-41.26300048828125 0.039000000804662704,-26.5 0.039000000804662704,-26.5"></path></g></g><g transform="matrix(2.1493401527404785,0,0,1.9977000951766968,248.70579528808594,230.5456085205078)" opacity="0.84" style="display: block;"><g opacity="1" transform="matrix(1,0,0,1,0,0)"><path fill="rgb(255,255,179)" fill-opacity="1" d=" M5.531000137329102,3.555000066757202 C5.531000137329102,6.994999885559082 3.13700008392334,10.23900032043457 0.08699999749660492,10.23900032043457 C-2.9730000495910645,10.23900032043457 -5.5289998054504395,6.994999885559082 -5.5289998054504395,3.555000066757202 C-5.5289998054504395,0.125 0.0010000000474974513,-9.774999618530273 0.0010000000474974513,-9.774999618530273 C0.0010000000474974513,-9.774999618530273 5.531000137329102,0.125 5.531000137329102,3.555000066757202"></path></g><g opacity="1" transform="matrix(1,0,0,1,0,0)"><path fill="rgb(233,165,64)" fill-opacity="1" d=" M0.03999999910593033,-3.941999912261963 C0.03999999910593033,-3.941999912261963 -6.426000118255615,8.579000473022461 0.21199999749660492,8.579000473022461 C6.163000106811523,8.579000473022461 0.03999999910593033,-3.941999912261963 0.03999999910593033,-3.941999912261963z"></path></g></g><g transform="matrix(1,0,0,1,343,243)" opacity="1" style="display: block;"><g opacity="1" transform="matrix(1,0,0,1,0,0)"><path stroke-linecap="round" stroke-linejoin="miter" fill-opacity="0" stroke-miterlimit="4" stroke="rgb(255,145,43)" stroke-opacity="1" stroke-width="7" d=" M-24.422000885009766,204.43699645996094 C-24.4689998626709,211.52200317382812 -24.5,216.25 -24.5,216.25 M-24,141 C-24,141 -24.033000946044922,145.92999267578125 -24.08099937438965,153.26499938964844"></path></g></g><g transform="matrix(1,0,0,1,256,256)" opacity="1" style="display: block;"><g opacity="1" transform="matrix(1,0,0,1,-26.554000854492188,211.32000732421875)"><path fill="rgb(255,145,43)" fill-opacity="1" d=" M0,-3.6115000247955322 C4.919636249542236,-3.6115000247955322 8.913999557495117,-1.9931868314743042 8.913999557495117,0 C8.913999557495117,1.9931868314743042 4.919636249542236,3.6115000247955322 0,3.6115000247955322 C-4.919636249542236,3.6115000247955322 -8.913999557495117,1.9931868314743042 -8.913999557495117,0 C-8.913999557495117,-1.9931868314743042 -4.919636249542236,-3.6115000247955322 0,-3.6115000247955322z"></path></g></g></g></svg>